<svg xmlns="http://www.w3.org/2000/svg" xmlns:xlink="http://www.w3.org/1999/xlink" width="74ch" height="47em" xml:space="preserve"><style>*{font-family:SimHei,Consolas,Menlo,DejaVu Sans Mono,Courier New,Noto Sans Mono CJK SC,monospace;font-size:14px}text,tspan{font-variant-ligatures:none;dominant-baseline:central;white-space:pre;fill:#bbb}.bg{stroke-width:&quot;0.5px&quot;}.bold{font-weight:700}.italic{font-style:italic}.underline{text-decoration:underline}.ba1{stroke:#b00;fill:#b00}.ba2{stroke:#0b0;fill:#0b0}.ba3{stroke:#bb0;fill:#bb0}.fa1{fill:#b00}.fa2{fill:#0b0}.fa3{fill:#bb0}.fa6{fill:#0bb}.fa7{fill:#bbb}</style><rect width="100%" height="100%" x="0" y="0" style="fill:#000"/><g class="bg"><rect width="16ch" height="1em" x="25ch" y="15em" class="ba1"/><rect width="9ch" height="1em" x="13ch" y="18em" class="ba1"/><rect width="9ch" height="1em" x="25ch" y="18em" class="ba1"/><rect width="9ch" height="1em" x="37ch" y="18em" class="ba1"/><rect width="9ch" height="1em" x="49ch" y="18em" class="ba1"/><rect width="9ch" height="1em" x="61ch" y="18em" class="ba1"/><rect width="9ch" height="1em" x="13ch" y="19em" class="ba1"/><rect width="9ch" height="1em" x="25ch" y="19em" class="ba1"/><rect width="9ch" height="1em" x="37ch" y="19em" class="ba1"/><rect width="16ch" height="1em" x="17ch" y="21em" class="ba2"/><rect width="16ch" height="1em" x="33ch" y="21em" class="ba3"/><rect width="16ch" height="1em" x="49ch" y="21em" class="ba1"/><rect width="1ch" height="1em" x="17ch" y="22em" class="ba2"/><rect width="2ch" height="1em" x="17ch" y="23em" class="ba2"/><rect width="1ch" height="1em" x="17ch" y="24em" class="ba2"/><rect width="16ch" height="1em" x="17ch" y="25em" class="ba2"/><rect width="16ch" height="1em" x="33ch" y="25em" class="ba3"/><rect width="16ch" height="1em" x="49ch" y="25em" class="ba1"/><rect width="1ch" height="1em" x="17ch" y="26em" class="ba2"/><rect width="8ch" height="1em" x="10ch" y="38em" class="ba1"/><rect width="7ch" height="1em" x="20ch" y="38em" class="ba1"/><rect width="9ch" height="1em" x="28ch" y="38em" class="ba3"/><rect width="5ch" height="1em" x="39ch" y="38em" class="ba2"/><rect width="5ch" height="1em" x="48ch" y="38em" class="ba2"/><rect width="5ch" height="1em" x="57ch" y="38em" class="ba2"/><rect width="9ch" height="1em" x="64ch" y="38em" class="ba3"/><rect width="8ch" height="1em" x="28ch" y="40em" class="ba2"/><rect width="8ch" height="1em" x="37ch" y="40em" class="ba2"/><rect width="8ch" height="1em" x="46ch" y="40em" class="ba2"/><rect width="8ch" height="1em" x="55ch" y="40em" class="ba2"/><rect width="8ch" height="1em" x="64ch" y="40em" class="ba3"/><rect width="5ch" height="1em" x="7ch" y="43em" class="ba1"/><rect width="7ch" height="1em" x="13ch" y="43em" class="ba2"/><rect width="5ch" height="1em" x="21ch" y="43em" class="ba2"/><rect width="5ch" height="1em" x="27ch" y="43em" class="ba1"/><rect width="2ch" height="1em" x="33ch" y="43em" class="ba1"/><rect width="6ch" height="1em" x="36ch" y="43em" class="ba2"/><rect width="3ch" height="1em" x="43ch" y="43em" class="ba2"/><rect width="3ch" height="1em" x="47ch" y="43em" class="ba1"/><rect width="7ch" height="1em" x="51ch" y="43em" class="ba1"/><rect width="3ch" height="1em" x="59ch" y="43em" class="ba2"/><rect width="4ch" height="1em" x="63ch" y="43em" class="ba2"/><rect width="4ch" height="1em" x="68ch" y="43em" class="ba2"/></g><text x="0ch" y=".5em"><tspan>########################################################################</tspan></text><text x="0ch" y="1.5em"><tspan class="bold">IP QUALITY CHECK REPORT: </tspan><tspan class="bold fa6">104.245.*.*</tspan></text><text x="0ch" y="2.5em"><tspan>bash &lt;(curl -sL IP.Check.Place)</tspan></text><text x="0ch" y="3.5em"><tspan class="underline">https://github.com/xykt/IPQuality</tspan></text><text x="0ch" y="4.5em"><tspan>Report Time: 2024-05-16 16:27:02 UTC Version: v2024-05-17</tspan></text><text x="0ch" y="5.5em"><tspan>########################################################################</tspan></text><text x="0ch" y="6.5em"><tspan>1. Basic Information (</tspan><tspan class="italic">Maxmind Database</tspan><tspan>)</tspan></text><text x="0ch" y="7.5em"><tspan class="fa6">ASN: </tspan><tspan class="fa2">AS9312</tspan></text><text x="0ch" y="8.5em"><tspan class="fa6">Organization: </tspan><tspan class="fa2">xTom</tspan></text><text x="0ch" y="9.5em"><tspan class="fa6">Location: </tspan><tspan class="fa2">114°10′33″E, 22°17′3″N</tspan></text><text x="0ch" y="10.5em"><tspan class="fa6">Map: </tspan><tspan class="underline fa2">https://check.place/22.2842,114.1759,15,en</tspan></text><text x="0ch" y="11.5em"><tspan class="fa6">City: </tspan><tspan class="fa2">N/A, Hong Kong</tspan></text><text x="0ch" y="12.5em"><tspan class="fa6">Actual Region: </tspan><tspan class="fa2">[HK]Hong Kong, [AS]Asia</tspan></text><text x="0ch" y="13.5em"><tspan class="fa6">Registered Region: </tspan><tspan class="fa2">[CA]Canada</tspan></text><text x="0ch" y="14.5em"><tspan class="fa6">Time Zone: </tspan><tspan class="fa2">Asia/Hong_Kong</tspan></text><text x="0ch" y="15.5em"><tspan class="fa6">IP Type: </tspan><tspan class="bold fa7">Geo-discrepant</tspan></text><text x="0ch" y="16.5em"><tspan>2. IP Type</tspan></text><text x="0ch" y="17.5em"><tspan class="fa6">Database: </tspan><tspan class="italic fa6">IPinfo ipregistry ipapi AbuseIPDB IP2LOCATION</tspan></text><text x="0ch" y="18.5em"><tspan class="fa6">Usage: </tspan><tspan class="bold fa7">Hosting Hosting Hosting Hosting Hosting</tspan></text><text x="0ch" y="19.5em"><tspan class="fa6">Company: </tspan><tspan class="bold fa7">Hosting Hosting Hosting</tspan></text><text x="0ch" y="20.5em"><tspan>3. Risk Score</tspan></text><text x="0ch" y="21.5em"><tspan class="fa6">Levels: </tspan><tspan class="italic fa7">VeryLow Low Medium High VeryHigh</tspan></text><text x="0ch" y="22.5em"><tspan class="fa6">SCAMALYTICS: </tspan><tspan class="bold fa7">0|</tspan><tspan class="bold fa2">Low</tspan></text><text x="0ch" y="23.5em"><tspan class="fa6">ipapi: </tspan><tspan class="bold fa7">0.10%|</tspan><tspan class="bold fa2">Low</tspan></text><text x="0ch" y="24.5em"><tspan class="fa6">AbuseIPDB: </tspan><tspan class="bold fa7">0|</tspan><tspan class="bold fa2">Low</tspan></text><text x="0ch" y="25.5em"><tspan class="fa6">IPQS: </tspan><tspan class="bold fa7">100|</tspan><tspan class="bold fa1">HighRisk</tspan></text><text x="0ch" y="26.5em"><tspan class="fa6">DB-IP: </tspan><tspan class="bold fa7">|</tspan><tspan class="bold fa2">Low</tspan></text><text x="0ch" y="27.5em"><tspan>4. Risk Factors</tspan></text><text x="0ch" y="28.5em"><tspan class="fa6">DB: </tspan><tspan class="italic fa6">IP2LOCATION ipapi ipregistry IPQS SCAMALYTICS ipdata IPinfo IPWHOIS</tspan></text><text x="0ch" y="29.5em"><tspan class="fa6">Region: </tspan><tspan class="fa2">[HK] [HK] [HK] [HK] [HK] [HK] [HK] [HK]</tspan></text><text x="0ch" y="30.5em"><tspan class="fa6">Proxy: </tspan><tspan class="bold fa2">No No No </tspan><tspan class="bold fa1">Yes </tspan><tspan class="bold fa2">No No No </tspan><tspan class="bold fa1">Yes</tspan></text><text x="0ch" y="31.5em"><tspan class="fa6">Tor: </tspan><tspan class="bold fa2">No No No No No No No No</tspan></text><text x="0ch" y="32.5em"><tspan class="fa6">VPN: </tspan><tspan class="bold fa1">Yes </tspan><tspan class="bold fa2">No </tspan><tspan class="bold fa1">Yes Yes Yes </tspan><tspan class="bold fa2">N/A No No</tspan></text><text x="0ch" y="33.5em"><tspan class="fa6">Server: </tspan><tspan class="bold fa1">Yes Yes Yes </tspan><tspan class="bold fa2">N/A No No </tspan><tspan class="bold fa1">Yes Yes</tspan></text><text x="0ch" y="34.5em"><tspan class="fa6">Abuser: </tspan><tspan class="bold fa2">No No No </tspan><tspan class="bold fa1">Yes </tspan><tspan class="bold fa2">N/A No N/A N/A</tspan></text><text x="0ch" y="35.5em"><tspan class="fa6">Robot: </tspan><tspan class="bold fa2">No No N/A </tspan><tspan class="bold fa1">Yes </tspan><tspan class="bold fa2">No N/A N/A N/A</tspan></text><text x="0ch" y="36.5em"><tspan>5. Accessibility check for media and AI services</tspan></text><text x="0ch" y="37.5em"><tspan class="fa6">Service: </tspan><tspan class="italic fa6">TikTok Disney+ Netflix Youtube AmazonPV Spotify ChatGPT</tspan></text><text x="0ch" y="38.5em"><tspan class="fa6">Status: </tspan><tspan class="fa7">Failed Block NF.Only Yes Yes Yes APPOnly</tspan></text><text x="0ch" y="39.5em"><tspan class="fa6">Region: </tspan><tspan class="fa2">[HK] [HK] [HK] [HK] [DE]</tspan></text><text x="0ch" y="40.5em"><tspan class="fa6">Type: </tspan><tspan class="fa7">Native Native Native Native ViaDNS</tspan></text><text x="0ch" y="41.5em"><tspan>6. Email service availability and blacklist detection</tspan></text><text x="0ch" y="42.5em"><tspan class="fa6">Local Port 25: </tspan><tspan class="fa2">Available</tspan></text><text x="0ch" y="43.5em"><tspan class="fa6">Conn: </tspan><tspan class="bold fa7">Gmail Outlook Yahoo Apple QQ MailRU AOL GMX MailCOM 163 Sohu Sina</tspan></text><text x="0ch" y="44.5em"><tspan class="fa6">DNSBL database: Active </tspan><tspan class="bold fa6">439 </tspan><tspan class="fa2">Clean </tspan><tspan class="bold fa2">435 </tspan><tspan class="fa3">Marked </tspan><tspan class="bold fa3">4 </tspan><tspan class="fa1">Blacklisted </tspan><tspan class="bold fa1">0</tspan></text><text x="0ch" y="45.5em"><tspan>========================================================================</tspan></text><text x="0ch" y="46.5em"><tspan class="italic">Script runs today: 463; Total: 7434. Thanks for running xy scripts!</tspan></text></svg>